<!-- icon666.com - MILLIONS vector ICONS FREE --><svg id="Layer_1" enable-background="new 0 0 512 512" viewBox="0 0 512 512" xmlns="http://www.w3.org/2000/svg"><g><path d="m456.834 0h-401.667c-30.419 0-55.167 24.748-55.167 55.167v401.666c0 30.419 24.748 55.167 55.167 55.167h401.667c30.418 0 55.166-24.748 55.166-55.167v-401.666c0-30.419-24.748-55.167-55.166-55.167zm25.166 456.833c0 13.877-11.29 25.167-25.166 25.167h-401.667c-13.877 0-25.167-11.29-25.167-25.167v-401.666c0-13.877 11.29-25.167 25.167-25.167h401.667c13.876 0 25.166 11.29 25.166 25.167z"></path><path d="m111.4 208.867c-25.99 0-47.134 21.144-47.134 47.133 0 25.99 21.144 47.134 47.134 47.134 25.989 0 47.133-21.144 47.133-47.134 0-25.989-21.143-47.133-47.133-47.133zm0 64.267c-9.448 0-17.134-7.686-17.134-17.134 0-9.447 7.686-17.133 17.134-17.133 9.447 0 17.133 7.686 17.133 17.133 0 9.448-7.685 17.134-17.133 17.134z"></path><path d="m111.4 80.333c-25.99 0-47.134 21.144-47.134 47.134 0 25.989 21.144 47.133 47.134 47.133 25.989 0 47.133-21.144 47.133-47.133 0-25.99-21.143-47.134-47.133-47.134zm0 64.267c-9.448 0-17.134-7.686-17.134-17.133 0-9.448 7.686-17.134 17.134-17.134 9.447 0 17.133 7.686 17.133 17.134 0 9.447-7.685 17.133-17.133 17.133z"></path><path d="m111.4 337.4c-25.99 0-47.134 21.144-47.134 47.133 0 25.99 21.144 47.134 47.134 47.134 25.989 0 47.133-21.144 47.133-47.134 0-25.989-21.143-47.133-47.133-47.133zm0 64.267c-9.448 0-17.134-7.686-17.134-17.134 0-9.447 7.686-17.133 17.134-17.133 9.447 0 17.133 7.686 17.133 17.133 0 9.448-7.685 17.134-17.133 17.134z"></path><path d="m400.601 80.333h-160.667c-25.989 0-47.133 21.144-47.133 47.134 0 25.989 21.144 47.133 47.133 47.133h160.667c25.989 0 47.133-21.144 47.133-47.133-.001-25.99-21.144-47.134-47.133-47.134zm0 64.267h-160.667c-9.447 0-17.133-7.686-17.133-17.133 0-9.448 7.686-17.134 17.133-17.134h160.667c9.447 0 17.133 7.686 17.133 17.134-.001 9.447-7.686 17.133-17.133 17.133z"></path><path d="m400.601 208.867h-160.667c-25.989 0-47.133 21.144-47.133 47.133 0 25.99 21.144 47.134 47.133 47.134h160.667c25.989 0 47.133-21.144 47.133-47.134-.001-25.989-21.144-47.133-47.133-47.133zm0 64.267h-160.667c-9.447 0-17.133-7.686-17.133-17.134 0-9.447 7.686-17.133 17.133-17.133h160.667c9.447 0 17.133 7.686 17.133 17.133-.001 9.448-7.686 17.134-17.133 17.134z"></path><path d="m400.601 337.4h-160.667c-25.989 0-47.133 21.144-47.133 47.133 0 25.99 21.144 47.134 47.133 47.134h160.667c25.989 0 47.133-21.144 47.133-47.134-.001-25.989-21.144-47.133-47.133-47.133zm0 64.267h-160.667c-9.447 0-17.133-7.686-17.133-17.134 0-9.447 7.686-17.133 17.133-17.133h160.667c9.447 0 17.133 7.686 17.133 17.133-.001 9.448-7.686 17.134-17.133 17.134z"></path></g></svg>